<?xml version="1.0" encoding="UTF-8" standalone="no"?>
<svg
   xmlns:dc="http://purl.org/dc/elements/1.1/"
   xmlns:cc="http://creativecommons.org/ns#"
   xmlns:rdf="http://www.w3.org/1999/02/22-rdf-syntax-ns#"
   xmlns:svg="http://www.w3.org/2000/svg"
   xmlns="http://www.w3.org/2000/svg"
   xmlns:sodipodi="http://sodipodi.sourceforge.net/DTD/sodipodi-0.dtd"
   xmlns:inkscape="http://www.inkscape.org/namespaces/inkscape"
   width="1024"
   height="1024"
   viewBox="0 0 1024 1024"
   fill="none"
   version="1.1"
   id="svg3725"
   sodipodi:docname="github.svg"
   inkscape:version="0.92.4 (5da689c313, 2019-01-14)">
  <metadata
     id="metadata3731">
    <rdf:RDF>
      <cc:Work
         rdf:about="">
        <dc:format>image/svg+xml</dc:format>
        <dc:type
           rdf:resource="http://purl.org/dc/dcmitype/StillImage" />
      </cc:Work>
    </rdf:RDF>
  </metadata>
  <defs
     id="defs3729" />
  <sodipodi:namedview
     pagecolor="#ffffff"
     bordercolor="#666666"
     borderopacity="1"
     objecttolerance="10"
     gridtolerance="10"
     guidetolerance="10"
     inkscape:pageopacity="0"
     inkscape:pageshadow="2"
     inkscape:window-width="1920"
     inkscape:window-height="1001"
     id="namedview3727"
     showgrid="false"
     inkscape:zoom="0.7890625"
     inkscape:cx="303.52475"
     inkscape:cy="512"
     inkscape:window-x="-9"
     inkscape:window-y="-9"
     inkscape:window-maximized="1"
     inkscape:current-layer="svg3725" />
  <path
     fill-rule="evenodd"
     clip-rule="evenodd"
     d="M8 0C3.58 0 0 3.58 0 8C0 11.54 2.29 14.53 5.47 15.59C5.87 15.66 6.02 15.42 6.02 15.21C6.02 15.02 6.01 14.39 6.01 13.72C4 14.09 3.48 13.23 3.32 12.78C3.23 12.55 2.84 11.84 2.5 11.65C2.22 11.5 1.82 11.13 2.49 11.12C3.12 11.11 3.57 11.7 3.72 11.94C4.44 13.15 5.59 12.81 6.05 12.6C6.12 12.08 6.33 11.73 6.56 11.53C4.78 11.33 2.92 10.64 2.92 7.58C2.92 6.71 3.23 5.99 3.74 5.43C3.66 5.23 3.38 4.41 3.82 3.31C3.82 3.31 4.49 3.1 6.02 4.13C6.66 3.95 7.34 3.86 8.02 3.86C8.7 3.86 9.38 3.95 10.02 4.13C11.55 3.09 12.22 3.31 12.22 3.31C12.66 4.41 12.38 5.23 12.3 5.43C12.81 5.99 13.12 6.7 13.12 7.58C13.12 10.65 11.25 11.33 9.47 11.53C9.76 11.78 10.01 12.26 10.01 13.01C10.01 14.08 10 14.94 10 15.21C10 15.42 10.15 15.67 10.55 15.59C13.71 14.53 16 11.53 16 8C16 3.58 12.42 0 8 0Z"
     transform="scale(64)"
     fill="#1B1F23"
     id="path3723"
     style="fill:#fffffb;fill-opacity:1" />
  <path
     style="stroke-width:1.26732671"
     d="M 345.9802,995.75051 C 319.12993,987.04587 277.45713,967.56489 249.01555,950.42199 101.17752,861.31404 8.9400159,706.57936 1.3454682,534.93861 -4.7815975,396.46371 43.253213,266.02852 138.32573,162.97822 195.02745,101.51851 271.38554,52.690355 352.55427,25.987053 435.5651,-1.3222766 527.95771,-6.6012419 614.76997,11.005037 c 131.97159,26.764979 249.3356,106.187723 323.5507,218.953703 27.20405,41.33514 45.21914,78.57773 60.16826,124.38581 29.19527,89.46206 32.61417,189.95306 9.58717,281.7911 -40.73734,162.47129 -159.26899,295.58174 -316.1157,354.99624 -19.32689,7.32115 -28.55789,8.51572 -36.98825,4.78657 -6.33263,-2.80122 -12.01572,-9.27705 -13.1521,-14.98667 -0.40461,-2.03288 -0.87563,-41.90605 -1.0467,-88.60704 -0.26791,-73.13182 -0.5978,-86.18426 -2.37809,-94.09014 -5.00854,-22.24176 -13.75796,-41.12408 -24.93079,-53.80363 l -5.24575,-5.95317 4.16787,-0.67307 c 2.29232,-0.37019 8.73024,-1.30211 14.30648,-2.0709 25.65823,-3.53757 58.3771,-11.78685 78.57426,-19.81063 30.38644,-12.0717 50.93354,-25.23445 71.72525,-45.94814 33.64132,-33.51511 52.0895,-74.66756 60.25126,-134.40279 3.08523,-22.58062 3.12496,-71.00205 0.0715,-87.11068 -6.56925,-34.65584 -19.7709,-64.29625 -39.82304,-89.41083 -5.06828,-6.34783 -9.21505,-11.91033 -9.21505,-12.36111 0,-0.45078 1.05787,-3.90294 2.35083,-7.67146 4.62873,-13.49117 6.94226,-30.07784 6.96584,-49.94097 0.029,-24.44562 -3.26927,-44.03625 -11.4606,-68.07159 l -3.3312,-9.77455 -5.57995,-0.83677 c -11.53901,-1.73038 -36.5857,2.86842 -56.72433,10.4151 -15.77074,5.90987 -41.36074,18.94088 -60.7411,30.93075 l -18.89674,11.69067 -5.81613,-1.42805 c -84.21238,-20.67685 -159.32112,-20.67464 -243.58435,0.008 l -5.84744,1.43521 -15.69712,-9.79492 c -20.35816,-12.70382 -55.22225,-29.79397 -72.09316,-35.34005 -19.80197,-6.50961 -40.43317,-9.66955 -50.27757,-7.70067 -3.29801,0.65961 -4.07357,1.80394 -7.0861,10.45545 -8.15243,23.41254 -11.54447,43.43065 -11.52448,68.01181 0.0162,19.99448 2.09147,34.86949 6.93538,49.71256 2.83699,8.69331 2.89985,8.4573 -4.64894,17.45575 -19.53174,23.28262 -33.67763,53.34711 -40.786,86.68319 -3.16718,14.85304 -3.40257,18.09807 -3.36479,46.38612 0.10822,80.98016 19.83859,138.01198 62.50738,180.68077 34.57951,34.57952 79.91669,54.73371 146.6557,65.19434 11.04646,1.73142 20.63093,3.14951 21.29884,3.15131 0.66789,10e-4 -1.1304,2.42705 -3.99621,5.38942 -11.59358,11.98421 -20.63815,30.87401 -25.08064,52.38151 -1.13162,5.4785 -2.16906,10.02805 -2.30542,10.11012 -2.37059,1.42667 -18.75822,7.07644 -24.96081,8.60543 -19.83526,4.88956 -33.29882,5.61209 -50.07183,2.68712 -28.16548,-4.91165 -50.99665,-21.05677 -69.49177,-49.14131 -19.74538,-29.98306 -38.83264,-46.76691 -61.45899,-54.04226 -7.42566,-2.38766 -11.00204,-2.76414 -22.79418,-2.39947 -16.13889,0.49909 -20.8198,2.60647 -21.5268,9.69155 -0.53077,5.31911 7.19478,13.70615 20.6703,22.44016 5.57624,3.61418 13.67898,10.35956 18.00608,14.98974 10.5672,11.30733 24.41607,32.48578 32.86675,50.26157 12.25805,25.78456 14.88778,30.47955 21.35277,38.12225 16.36357,19.34448 41.32288,31.39527 73.3833,35.43073 15.28787,1.9243 50.41071,0.96199 68.46308,-1.87578 6.91187,-1.08652 12.7167,-1.82582 12.89961,-1.6429 0.18293,0.18293 0.47018,22.85251 0.63834,50.37687 0.28137,46.05605 0.1228,50.42872 -1.98885,54.86829 -5.60015,11.77338 -20.27999,16.303 -36.15573,11.1562 z"
     id="path3733"
     inkscape:connector-curvature="0" />
  <path
     style="stroke-width:1.26732671"
     d="M 345.9802,995.75051 C 319.12993,987.04587 277.45713,967.56489 249.01555,950.42199 101.17752,861.31404 8.9400159,706.57936 1.3454682,534.93861 -4.7815975,396.46371 43.253213,266.02852 138.32573,162.97822 195.02745,101.51851 271.38554,52.690355 352.55427,25.987053 435.5651,-1.3222766 527.95771,-6.6012419 614.76997,11.005037 c 131.97159,26.764979 249.3356,106.187723 323.5507,218.953703 27.20405,41.33514 45.21914,78.57773 60.16826,124.38581 29.19527,89.46206 32.61417,189.95306 9.58717,281.7911 -40.73734,162.47129 -159.26899,295.58174 -316.1157,354.99624 -19.32689,7.32115 -28.55789,8.51572 -36.98825,4.78657 -6.33263,-2.80122 -12.01572,-9.27705 -13.1521,-14.98667 -0.40461,-2.03288 -0.87563,-41.90605 -1.0467,-88.60704 -0.26791,-73.13182 -0.5978,-86.18426 -2.37809,-94.09014 -5.00854,-22.24176 -13.75796,-41.12408 -24.93079,-53.80363 l -5.24575,-5.95317 4.16787,-0.67307 c 2.29232,-0.37019 8.73024,-1.30211 14.30648,-2.0709 25.65823,-3.53757 58.3771,-11.78685 78.57426,-19.81063 30.38644,-12.0717 50.93354,-25.23445 71.72525,-45.94814 33.64132,-33.51511 52.0895,-74.66756 60.25126,-134.40279 3.08523,-22.58062 3.12496,-71.00205 0.0715,-87.11068 -6.56925,-34.65584 -19.7709,-64.29625 -39.82304,-89.41083 -5.06828,-6.34783 -9.21505,-11.91033 -9.21505,-12.36111 0,-0.45078 1.05787,-3.90294 2.35083,-7.67146 4.62873,-13.49117 6.94226,-30.07784 6.96584,-49.94097 0.029,-24.44562 -3.26927,-44.03625 -11.4606,-68.07159 l -3.3312,-9.77455 -5.57995,-0.83677 c -11.53901,-1.73038 -36.5857,2.86842 -56.72433,10.4151 -15.77074,5.90987 -41.36074,18.94088 -60.7411,30.93075 l -18.89674,11.69067 -5.81613,-1.42805 c -84.21238,-20.67685 -159.32112,-20.67464 -243.58435,0.008 l -5.84744,1.43521 -15.69712,-9.79492 c -20.35816,-12.70382 -55.22225,-29.79397 -72.09316,-35.34005 -19.80197,-6.50961 -40.43317,-9.66955 -50.27757,-7.70067 -3.29801,0.65961 -4.07357,1.80394 -7.0861,10.45545 -8.15243,23.41254 -11.54447,43.43065 -11.52448,68.01181 0.0162,19.99448 2.09147,34.86949 6.93538,49.71256 2.83699,8.69331 2.89985,8.4573 -4.64894,17.45575 -19.53174,23.28262 -33.67763,53.34711 -40.786,86.68319 -3.16718,14.85304 -3.40257,18.09807 -3.36479,46.38612 0.10822,80.98016 19.83859,138.01198 62.50738,180.68077 34.57951,34.57952 79.91669,54.73371 146.6557,65.19434 11.04646,1.73142 20.63093,3.14951 21.29884,3.15131 0.66789,10e-4 -1.1304,2.42705 -3.99621,5.38942 -11.59358,11.98421 -20.63815,30.87401 -25.08064,52.38151 -1.13162,5.4785 -2.16906,10.02805 -2.30542,10.11012 -2.37059,1.42667 -18.75822,7.07644 -24.96081,8.60543 -19.83526,4.88956 -33.29882,5.61209 -50.07183,2.68712 -28.16548,-4.91165 -50.99665,-21.05677 -69.49177,-49.14131 -19.74538,-29.98306 -38.83264,-46.76691 -61.45899,-54.04226 -7.42566,-2.38766 -11.00204,-2.76414 -22.79418,-2.39947 -16.13889,0.49909 -20.8198,2.60647 -21.5268,9.69155 -0.53077,5.31911 7.19478,13.70615 20.6703,22.44016 5.57624,3.61418 13.67898,10.35956 18.00608,14.98974 10.5672,11.30733 24.41607,32.48578 32.86675,50.26157 12.25805,25.78456 14.88778,30.47955 21.35277,38.12225 16.36357,19.34448 41.32288,31.39527 73.3833,35.43073 15.28787,1.9243 50.41071,0.96199 68.46308,-1.87578 6.91187,-1.08652 12.7167,-1.82582 12.89961,-1.6429 0.18293,0.18293 0.47018,22.85251 0.63834,50.37687 0.28137,46.05605 0.1228,50.42872 -1.98885,54.86829 -5.60015,11.77338 -20.27999,16.303 -36.15573,11.1562 z"
     id="path3735"
     inkscape:connector-curvature="0" />
  <path
     style="stroke-width:1.26732671"
     d="M 345.9802,995.75051 C 319.12993,987.04587 277.45713,967.56489 249.01555,950.42199 101.17752,861.31404 8.9400159,706.57936 1.3454682,534.93861 -4.7815975,396.46371 43.253213,266.02852 138.32573,162.97822 195.02745,101.51851 271.38554,52.690355 352.55427,25.987053 435.5651,-1.3222766 527.95771,-6.6012419 614.76997,11.005037 c 131.97159,26.764979 249.3356,106.187723 323.5507,218.953703 27.20405,41.33514 45.21914,78.57773 60.16826,124.38581 29.19527,89.46206 32.61417,189.95306 9.58717,281.7911 -40.73734,162.47129 -159.26899,295.58174 -316.1157,354.99624 -19.32689,7.32115 -28.55789,8.51572 -36.98825,4.78657 -6.33263,-2.80122 -12.01572,-9.27705 -13.1521,-14.98667 -0.40461,-2.03288 -0.87563,-41.90605 -1.0467,-88.60704 -0.26791,-73.13182 -0.5978,-86.18426 -2.37809,-94.09014 -5.00854,-22.24176 -13.75796,-41.12408 -24.93079,-53.80363 l -5.24575,-5.95317 4.16787,-0.67307 c 2.29232,-0.37019 8.73024,-1.30211 14.30648,-2.0709 25.65823,-3.53757 58.3771,-11.78685 78.57426,-19.81063 30.38644,-12.0717 50.93354,-25.23445 71.72525,-45.94814 33.64132,-33.51511 52.0895,-74.66756 60.25126,-134.40279 3.08523,-22.58062 3.12496,-71.00205 0.0715,-87.11068 -6.56925,-34.65584 -19.7709,-64.29625 -39.82304,-89.41083 -5.06828,-6.34783 -9.21505,-11.91033 -9.21505,-12.36111 0,-0.45078 1.05787,-3.90294 2.35083,-7.67146 4.62873,-13.49117 6.94226,-30.07784 6.96584,-49.94097 0.029,-24.44562 -3.26927,-44.03625 -11.4606,-68.07159 l -3.3312,-9.77455 -5.57995,-0.83677 c -11.53901,-1.73038 -36.5857,2.86842 -56.72433,10.4151 -15.77074,5.90987 -41.36074,18.94088 -60.7411,30.93075 l -18.89674,11.69067 -5.81613,-1.42805 c -84.21238,-20.67685 -159.32112,-20.67464 -243.58435,0.008 l -5.84744,1.43521 -15.69712,-9.79492 c -20.35816,-12.70382 -55.22225,-29.79397 -72.09316,-35.34005 -19.80197,-6.50961 -40.43317,-9.66955 -50.27757,-7.70067 -3.29801,0.65961 -4.07357,1.80394 -7.0861,10.45545 -8.15243,23.41254 -11.54447,43.43065 -11.52448,68.01181 0.0162,19.99448 2.09147,34.86949 6.93538,49.71256 2.83699,8.69331 2.89985,8.4573 -4.64894,17.45575 -19.53174,23.28262 -33.67763,53.34711 -40.786,86.68319 -3.16718,14.85304 -3.40257,18.09807 -3.36479,46.38612 0.10822,80.98016 19.83859,138.01198 62.50738,180.68077 34.57951,34.57952 79.91669,54.73371 146.6557,65.19434 11.04646,1.73142 20.63093,3.14951 21.29884,3.15131 0.66789,10e-4 -1.1304,2.42705 -3.99621,5.38942 -11.59358,11.98421 -20.63815,30.87401 -25.08064,52.38151 -1.13162,5.4785 -2.16906,10.02805 -2.30542,10.11012 -2.37059,1.42667 -18.75822,7.07644 -24.96081,8.60543 -19.83526,4.88956 -33.29882,5.61209 -50.07183,2.68712 -28.16548,-4.91165 -50.99665,-21.05677 -69.49177,-49.14131 -19.74538,-29.98306 -38.83264,-46.76691 -61.45899,-54.04226 -7.42566,-2.38766 -11.00204,-2.76414 -22.79418,-2.39947 -16.13889,0.49909 -20.8198,2.60647 -21.5268,9.69155 -0.53077,5.31911 7.19478,13.70615 20.6703,22.44016 5.57624,3.61418 13.67898,10.35956 18.00608,14.98974 10.5672,11.30733 24.41607,32.48578 32.86675,50.26157 12.25805,25.78456 14.88778,30.47955 21.35277,38.12225 16.36357,19.34448 41.32288,31.39527 73.3833,35.43073 15.28787,1.9243 50.41071,0.96199 68.46308,-1.87578 6.91187,-1.08652 12.7167,-1.82582 12.89961,-1.6429 0.18293,0.18293 0.47018,22.85251 0.63834,50.37687 0.28137,46.05605 0.1228,50.42872 -1.98885,54.86829 -5.60015,11.77338 -20.27999,16.303 -36.15573,11.1562 z"
     id="path3737"
     inkscape:connector-curvature="0" />
  <path
     style="stroke-width:1.26732671;opacity:0;fill:#000000;fill-opacity:1"
     d="M 345.9802,995.75051 C 319.12993,987.04587 277.45713,967.56489 249.01555,950.42199 101.17752,861.31404 8.9400159,706.57936 1.3454682,534.93861 -4.7815975,396.46371 43.253213,266.02852 138.32573,162.97822 195.02745,101.51851 271.38554,52.690355 352.55427,25.987053 435.5651,-1.3222766 527.95771,-6.6012419 614.76997,11.005037 c 131.97159,26.764979 249.3356,106.187723 323.5507,218.953703 27.20405,41.33514 45.21914,78.57773 60.16826,124.38581 29.19527,89.46206 32.61417,189.95306 9.58717,281.7911 -40.73734,162.47129 -159.26899,295.58174 -316.1157,354.99624 -19.32689,7.32115 -28.55789,8.51572 -36.98825,4.78657 -6.33263,-2.80122 -12.01572,-9.27705 -13.1521,-14.98667 -0.40461,-2.03288 -0.87563,-41.90605 -1.0467,-88.60704 -0.26791,-73.13182 -0.5978,-86.18426 -2.37809,-94.09014 -5.00854,-22.24176 -13.75796,-41.12408 -24.93079,-53.80363 l -5.24575,-5.95317 4.16787,-0.67307 c 2.29232,-0.37019 8.73024,-1.30211 14.30648,-2.0709 25.65823,-3.53757 58.3771,-11.78685 78.57426,-19.81063 30.38644,-12.0717 50.93354,-25.23445 71.72525,-45.94814 33.64132,-33.51511 52.0895,-74.66756 60.25126,-134.40279 3.08523,-22.58062 3.12496,-71.00205 0.0715,-87.11068 -6.56925,-34.65584 -19.7709,-64.29625 -39.82304,-89.41083 -5.06828,-6.34783 -9.21505,-11.91033 -9.21505,-12.36111 0,-0.45078 1.05787,-3.90294 2.35083,-7.67146 4.62873,-13.49117 6.94226,-30.07784 6.96584,-49.94097 0.029,-24.44562 -3.26927,-44.03625 -11.4606,-68.07159 l -3.3312,-9.77455 -5.57995,-0.83677 c -11.53901,-1.73038 -36.5857,2.86842 -56.72433,10.4151 -15.77074,5.90987 -41.36074,18.94088 -60.7411,30.93075 l -18.89674,11.69067 -5.81613,-1.42805 c -84.21238,-20.67685 -159.32112,-20.67464 -243.58435,0.008 l -5.84744,1.43521 -15.69712,-9.79492 c -20.35816,-12.70382 -55.22225,-29.79397 -72.09316,-35.34005 -19.80197,-6.50961 -40.43317,-9.66955 -50.27757,-7.70067 -3.29801,0.65961 -4.07357,1.80394 -7.0861,10.45545 -8.15243,23.41254 -11.54447,43.43065 -11.52448,68.01181 0.0162,19.99448 2.09147,34.86949 6.93538,49.71256 2.83699,8.69331 2.89985,8.4573 -4.64894,17.45575 -19.53174,23.28262 -33.67763,53.34711 -40.786,86.68319 -3.16718,14.85304 -3.40257,18.09807 -3.36479,46.38612 0.10822,80.98016 19.83859,138.01198 62.50738,180.68077 34.57951,34.57952 79.91669,54.73371 146.6557,65.19434 11.04646,1.73142 20.63093,3.14951 21.29884,3.15131 0.66789,10e-4 -1.1304,2.42705 -3.99621,5.38942 -11.59358,11.98421 -20.63815,30.87401 -25.08064,52.38151 -1.13162,5.4785 -2.16906,10.02805 -2.30542,10.11012 -2.37059,1.42667 -18.75822,7.07644 -24.96081,8.60543 -19.83526,4.88956 -33.29882,5.61209 -50.07183,2.68712 -28.16548,-4.91165 -50.99665,-21.05677 -69.49177,-49.14131 -19.74538,-29.98306 -38.83264,-46.76691 -61.45899,-54.04226 -7.42566,-2.38766 -11.00204,-2.76414 -22.79418,-2.39947 -16.13889,0.49909 -20.8198,2.60647 -21.5268,9.69155 -0.53077,5.31911 7.19478,13.70615 20.6703,22.44016 5.57624,3.61418 13.67898,10.35956 18.00608,14.98974 10.5672,11.30733 24.41607,32.48578 32.86675,50.26157 12.25805,25.78456 14.88778,30.47955 21.35277,38.12225 16.36357,19.34448 41.32288,31.39527 73.3833,35.43073 15.28787,1.9243 50.41071,0.96199 68.46308,-1.87578 6.91187,-1.08652 12.7167,-1.82582 12.89961,-1.6429 0.18293,0.18293 0.47018,22.85251 0.63834,50.37687 0.28137,46.05605 0.1228,50.42872 -1.98885,54.86829 -5.60015,11.77338 -20.27999,16.303 -36.15573,11.1562 z"
     id="path3739"
     inkscape:connector-curvature="0" />
  <path
     style="opacity:0;fill:#ffffff;fill-opacity:1;stroke-width:1.26732671"
     d="M 338.90475,993.13336 C 286.46773,974.39926 236.75026,946.42661 190.98614,909.90956 169.5741,892.82402 130.88867,854.26731 114.21521,833.39406 24.848033,721.51665 -13.571693,583.20862 5.4339888,441.7901 16.905724,356.43059 51.340301,273.51293 104.59787,203.00579 130.9622,168.10235 168.2056,130.85363 203.07457,104.51503 277.0168,48.662102 360.09891,15.367503 454.5901,3.7218769 c 25.98049,-3.20198242 89.34624,-3.20198242 115.32673,0 63.1269,7.7801151 118.29921,24.3968461 172.9901,52.1009611 C 888.57121,129.61025 990.945,269.28029 1016.541,429.14578 c 5.2056,32.51243 6.3039,47.10056 6.2954,83.61462 -0.014,59.14883 -7.5625,106.21285 -25.81488,160.95049 -43.94012,131.77338 -140.0601,240.55096 -265.52053,300.48573 -17.4135,8.31874 -43.55186,18.92218 -54.46629,22.09509 -14.9068,4.33349 -28.09603,-0.0558 -33.45938,-11.13494 -2.65367,-5.48175 -2.68819,-6.59638 -2.68819,-86.8038 0,-82.96522 -0.39789,-91.51351 -5.13862,-110.39952 -3.36109,-13.38983 -13.54815,-33.452 -21.48991,-42.32177 -3.58858,-4.00792 -6.05137,-7.2886 -5.47284,-7.29041 0.57853,-10e-4 10.08988,-1.41989 21.13633,-3.15131 125.08079,-19.60509 188.85233,-79.12875 206.36875,-192.62236 3.76671,-24.40552 4.14175,-78.86034 0.66353,-96.34186 -6.81522,-34.25328 -20.01665,-62.96675 -41.16205,-89.52863 l -7.71165,-9.68704 3.00834,-9.47336 c 9.97866,-31.42301 8.76283,-73.5232 -3.20695,-111.04498 -2.14305,-6.71785 -4.37022,-12.98085 -4.94929,-13.91778 -1.71124,-2.76887 -15.92595,-3.19877 -29.25356,-0.88475 -27.88868,4.84224 -64.35679,20.80057 -99.4577,43.5224 l -12.64582,8.18599 -17.13636,-3.92868 c -36.74811,-8.42485 -61.23455,-11.48911 -99.5126,-12.4531 -42.37969,-1.06727 -79.68865,2.6261 -120.00097,11.87942 l -19.88217,4.56377 -11.801,-7.6184 c -26.25579,-16.95002 -54.55402,-30.88801 -77.8858,-38.36185 -16.43212,-5.26368 -37.57602,-8.45616 -45.59892,-6.8849 l -6.00698,1.17645 -3.4383,9.51588 c -7.11608,19.69455 -10.36103,38.01881 -10.99486,62.08808 -0.63796,24.22554 0.87729,37.17591 6.3894,54.60814 l 2.96973,9.39186 -5.97766,6.97029 c -26.85969,31.31994 -43.06237,73.40089 -46.11284,119.76238 -0.96829,14.71612 0.98909,50.52867 3.79009,69.34486 12.69978,85.31232 55.96784,142.82647 129.30753,171.88226 22.00575,8.71824 53.54454,16.783 79.77741,20.39979 5.57623,0.76879 12.01742,1.70132 14.31373,2.07227 l 4.17513,0.67443 -5.84397,6.4999 c -11.0141,12.25032 -21.81543,36.44283 -24.15922,54.11104 -0.85542,6.44855 -1.07411,6.74683 -6.72453,9.17221 -19.6846,8.44941 -46.26467,12.59155 -64.88835,10.11198 -31.82506,-4.23722 -54.40891,-19.87125 -77.16283,-53.41725 -17.35929,-25.59269 -33.85792,-40.41723 -54.80219,-49.24149 -7.23242,-3.04717 -9.46314,-3.35257 -24.48826,-3.35257 -13.81238,0 -17.10618,0.37687 -20.02851,2.29167 -1.92363,1.2604 -3.81352,3.11515 -4.19975,4.12163 -2.29521,5.9812 5.27982,15.22219 20.922,25.52338 11.43526,7.5307 19.28203,15.09561 28.65702,27.62767 8.93293,11.94111 20.14733,31.55859 27.65187,48.37172 7.82749,17.53667 12.9292,25.07219 23.76866,35.10761 13.07411,12.10432 29.25514,20.10092 51.05517,25.23126 10.17561,2.39469 15.29181,2.73507 40.78373,2.71331 21.81647,-0.0186 32.30195,-0.57478 41.685,-2.211 6.89507,-1.20237 12.73313,-1.98948 12.97348,-1.74913 0.24035,0.24035 0.80522,21.78309 1.25526,47.87275 0.92136,53.41306 0.66024,55.79363 -6.9552,63.40907 -8.84732,8.84732 -18.87362,9.487 -38.54488,2.45906 z"
     id="path4546"
     inkscape:connector-curvature="0" />
  <path
     style="opacity:0;fill:#ffffff;fill-opacity:1;stroke-width:1.26732671"
     d="M 338.90475,993.13336 C 286.46773,974.39926 236.75026,946.42661 190.98614,909.90956 169.5741,892.82402 130.88867,854.26731 114.21521,833.39406 24.848033,721.51665 -13.571693,583.20862 5.4339888,441.7901 16.905724,356.43059 51.340301,273.51293 104.59787,203.00579 130.9622,168.10235 168.2056,130.85363 203.07457,104.51503 277.0168,48.662102 360.09891,15.367503 454.5901,3.7218769 c 25.98049,-3.20198242 89.34624,-3.20198242 115.32673,0 63.1269,7.7801151 118.29921,24.3968461 172.9901,52.1009611 C 888.57121,129.61025 990.945,269.28029 1016.541,429.14578 c 5.2056,32.51243 6.3039,47.10056 6.2954,83.61462 -0.014,59.14883 -7.5625,106.21285 -25.81488,160.95049 -43.94012,131.77338 -140.0601,240.55096 -265.52053,300.48573 -17.4135,8.31874 -43.55186,18.92218 -54.46629,22.09509 -14.9068,4.33349 -28.09603,-0.0558 -33.45938,-11.13494 -2.65367,-5.48175 -2.68819,-6.59638 -2.68819,-86.8038 0,-82.96522 -0.39789,-91.51351 -5.13862,-110.39952 -3.36109,-13.38983 -13.54815,-33.452 -21.48991,-42.32177 -3.58858,-4.00792 -6.05137,-7.2886 -5.47284,-7.29041 0.57853,-10e-4 10.08988,-1.41989 21.13633,-3.15131 125.08079,-19.60509 188.85233,-79.12875 206.36875,-192.62236 3.76671,-24.40552 4.14175,-78.86034 0.66353,-96.34186 -6.81522,-34.25328 -20.01665,-62.96675 -41.16205,-89.52863 l -7.71165,-9.68704 3.00834,-9.47336 c 9.97866,-31.42301 8.76283,-73.5232 -3.20695,-111.04498 -2.14305,-6.71785 -4.37022,-12.98085 -4.94929,-13.91778 -1.71124,-2.76887 -15.92595,-3.19877 -29.25356,-0.88475 -27.88868,4.84224 -64.35679,20.80057 -99.4577,43.5224 l -12.64582,8.18599 -17.13636,-3.92868 c -36.74811,-8.42485 -61.23455,-11.48911 -99.5126,-12.4531 -42.37969,-1.06727 -79.68865,2.6261 -120.00097,11.87942 l -19.88217,4.56377 -11.801,-7.6184 c -26.25579,-16.95002 -54.55402,-30.88801 -77.8858,-38.36185 -16.43212,-5.26368 -37.57602,-8.45616 -45.59892,-6.8849 l -6.00698,1.17645 -3.4383,9.51588 c -7.11608,19.69455 -10.36103,38.01881 -10.99486,62.08808 -0.63796,24.22554 0.87729,37.17591 6.3894,54.60814 l 2.96973,9.39186 -5.97766,6.97029 c -26.85969,31.31994 -43.06237,73.40089 -46.11284,119.76238 -0.96829,14.71612 0.98909,50.52867 3.79009,69.34486 12.69978,85.31232 55.96784,142.82647 129.30753,171.88226 22.00575,8.71824 53.54454,16.783 79.77741,20.39979 5.57623,0.76879 12.01742,1.70132 14.31373,2.07227 l 4.17513,0.67443 -5.84397,6.4999 c -11.0141,12.25032 -21.81543,36.44283 -24.15922,54.11104 -0.85542,6.44855 -1.07411,6.74683 -6.72453,9.17221 -19.6846,8.44941 -46.26467,12.59155 -64.88835,10.11198 -31.82506,-4.23722 -54.40891,-19.87125 -77.16283,-53.41725 -17.35929,-25.59269 -33.85792,-40.41723 -54.80219,-49.24149 -7.23242,-3.04717 -9.46314,-3.35257 -24.48826,-3.35257 -13.81238,0 -17.10618,0.37687 -20.02851,2.29167 -1.92363,1.2604 -3.81352,3.11515 -4.19975,4.12163 -2.29521,5.9812 5.27982,15.22219 20.922,25.52338 11.43526,7.5307 19.28203,15.09561 28.65702,27.62767 8.93293,11.94111 20.14733,31.55859 27.65187,48.37172 7.82749,17.53667 12.9292,25.07219 23.76866,35.10761 13.07411,12.10432 29.25514,20.10092 51.05517,25.23126 10.17561,2.39469 15.29181,2.73507 40.78373,2.71331 21.81647,-0.0186 32.30195,-0.57478 41.685,-2.211 6.89507,-1.20237 12.73313,-1.98948 12.97348,-1.74913 0.24035,0.24035 0.80522,21.78309 1.25526,47.87275 0.92136,53.41306 0.66024,55.79363 -6.9552,63.40907 -8.84732,8.84732 -18.87362,9.487 -38.54488,2.45906 z"
     id="path4548"
     inkscape:connector-curvature="0" />
  <path
     style="opacity:0;fill:#ffffff;fill-opacity:1;stroke-width:1.26732671"
     d="M 338.90475,993.13336 C 286.46773,974.39926 236.75026,946.42661 190.98614,909.90956 169.5741,892.82402 130.88867,854.26731 114.21521,833.39406 24.848033,721.51665 -13.571693,583.20862 5.4339888,441.7901 16.905724,356.43059 51.340301,273.51293 104.59787,203.00579 130.9622,168.10235 168.2056,130.85363 203.07457,104.51503 277.0168,48.662102 360.09891,15.367503 454.5901,3.7218769 c 25.98049,-3.20198242 89.34624,-3.20198242 115.32673,0 63.1269,7.7801151 118.29921,24.3968461 172.9901,52.1009611 C 888.57121,129.61025 990.945,269.28029 1016.541,429.14578 c 5.2056,32.51243 6.3039,47.10056 6.2954,83.61462 -0.014,59.14883 -7.5625,106.21285 -25.81488,160.95049 -43.94012,131.77338 -140.0601,240.55096 -265.52053,300.48573 -17.4135,8.31874 -43.55186,18.92218 -54.46629,22.09509 -14.9068,4.33349 -28.09603,-0.0558 -33.45938,-11.13494 -2.65367,-5.48175 -2.68819,-6.59638 -2.68819,-86.8038 0,-82.96522 -0.39789,-91.51351 -5.13862,-110.39952 -3.36109,-13.38983 -13.54815,-33.452 -21.48991,-42.32177 -3.58858,-4.00792 -6.05137,-7.2886 -5.47284,-7.29041 0.57853,-10e-4 10.08988,-1.41989 21.13633,-3.15131 125.08079,-19.60509 188.85233,-79.12875 206.36875,-192.62236 3.76671,-24.40552 4.14175,-78.86034 0.66353,-96.34186 -6.81522,-34.25328 -20.01665,-62.96675 -41.16205,-89.52863 l -7.71165,-9.68704 3.00834,-9.47336 c 9.97866,-31.42301 8.76283,-73.5232 -3.20695,-111.04498 -2.14305,-6.71785 -4.37022,-12.98085 -4.94929,-13.91778 -1.71124,-2.76887 -15.92595,-3.19877 -29.25356,-0.88475 -27.88868,4.84224 -64.35679,20.80057 -99.4577,43.5224 l -12.64582,8.18599 -17.13636,-3.92868 c -36.74811,-8.42485 -61.23455,-11.48911 -99.5126,-12.4531 -42.37969,-1.06727 -79.68865,2.6261 -120.00097,11.87942 l -19.88217,4.56377 -11.801,-7.6184 c -26.25579,-16.95002 -54.55402,-30.88801 -77.8858,-38.36185 -16.43212,-5.26368 -37.57602,-8.45616 -45.59892,-6.8849 l -6.00698,1.17645 -3.4383,9.51588 c -7.11608,19.69455 -10.36103,38.01881 -10.99486,62.08808 -0.63796,24.22554 0.87729,37.17591 6.3894,54.60814 l 2.96973,9.39186 -5.97766,6.97029 c -26.85969,31.31994 -43.06237,73.40089 -46.11284,119.76238 -0.96829,14.71612 0.98909,50.52867 3.79009,69.34486 12.69978,85.31232 55.96784,142.82647 129.30753,171.88226 22.00575,8.71824 53.54454,16.783 79.77741,20.39979 5.57623,0.76879 12.01742,1.70132 14.31373,2.07227 l 4.17513,0.67443 -5.84397,6.4999 c -11.0141,12.25032 -21.81543,36.44283 -24.15922,54.11104 -0.85542,6.44855 -1.07411,6.74683 -6.72453,9.17221 -19.6846,8.44941 -46.26467,12.59155 -64.88835,10.11198 -31.82506,-4.23722 -54.40891,-19.87125 -77.16283,-53.41725 -17.35929,-25.59269 -33.85792,-40.41723 -54.80219,-49.24149 -7.23242,-3.04717 -9.46314,-3.35257 -24.48826,-3.35257 -13.81238,0 -17.10618,0.37687 -20.02851,2.29167 -1.92363,1.2604 -3.81352,3.11515 -4.19975,4.12163 -2.29521,5.9812 5.27982,15.22219 20.922,25.52338 11.43526,7.5307 19.28203,15.09561 28.65702,27.62767 8.93293,11.94111 20.14733,31.55859 27.65187,48.37172 7.82749,17.53667 12.9292,25.07219 23.76866,35.10761 13.07411,12.10432 29.25514,20.10092 51.05517,25.23126 10.17561,2.39469 15.29181,2.73507 40.78373,2.71331 21.81647,-0.0186 32.30195,-0.57478 41.685,-2.211 6.89507,-1.20237 12.73313,-1.98948 12.97348,-1.74913 0.24035,0.24035 0.80522,21.78309 1.25526,47.87275 0.92136,53.41306 0.66024,55.79363 -6.9552,63.40907 -8.84732,8.84732 -18.87362,9.487 -38.54488,2.45906 z"
     id="path4550"
     inkscape:connector-curvature="0" />
  <path
     style="opacity:0;fill:#ffffff;fill-opacity:1;stroke-width:1.26732671"
     d="M 338.90475,993.13336 C 286.46773,974.39926 236.75026,946.42661 190.98614,909.90956 169.5741,892.82402 130.88867,854.26731 114.21521,833.39406 24.848033,721.51665 -13.571693,583.20862 5.4339888,441.7901 16.905724,356.43059 51.340301,273.51293 104.59787,203.00579 130.9622,168.10235 168.2056,130.85363 203.07457,104.51503 277.0168,48.662102 360.09891,15.367503 454.5901,3.7218769 c 25.98049,-3.20198242 89.34624,-3.20198242 115.32673,0 63.1269,7.7801151 118.29921,24.3968461 172.9901,52.1009611 C 888.57121,129.61025 990.945,269.28029 1016.541,429.14578 c 5.2056,32.51243 6.3039,47.10056 6.2954,83.61462 -0.014,59.14883 -7.5625,106.21285 -25.81488,160.95049 -43.94012,131.77338 -140.0601,240.55096 -265.52053,300.48573 -17.4135,8.31874 -43.55186,18.92218 -54.46629,22.09509 -14.9068,4.33349 -28.09603,-0.0558 -33.45938,-11.13494 -2.65367,-5.48175 -2.68819,-6.59638 -2.68819,-86.8038 0,-82.96522 -0.39789,-91.51351 -5.13862,-110.39952 -3.36109,-13.38983 -13.54815,-33.452 -21.48991,-42.32177 -3.58858,-4.00792 -6.05137,-7.2886 -5.47284,-7.29041 0.57853,-10e-4 10.08988,-1.41989 21.13633,-3.15131 125.08079,-19.60509 188.85233,-79.12875 206.36875,-192.62236 3.76671,-24.40552 4.14175,-78.86034 0.66353,-96.34186 -6.81522,-34.25328 -20.01665,-62.96675 -41.16205,-89.52863 l -7.71165,-9.68704 3.00834,-9.47336 c 9.97866,-31.42301 8.76283,-73.5232 -3.20695,-111.04498 -2.14305,-6.71785 -4.37022,-12.98085 -4.94929,-13.91778 -1.71124,-2.76887 -15.92595,-3.19877 -29.25356,-0.88475 -27.88868,4.84224 -64.35679,20.80057 -99.4577,43.5224 l -12.64582,8.18599 -17.13636,-3.92868 c -36.74811,-8.42485 -61.23455,-11.48911 -99.5126,-12.4531 -42.37969,-1.06727 -79.68865,2.6261 -120.00097,11.87942 l -19.88217,4.56377 -11.801,-7.6184 c -26.25579,-16.95002 -54.55402,-30.88801 -77.8858,-38.36185 -16.43212,-5.26368 -37.57602,-8.45616 -45.59892,-6.8849 l -6.00698,1.17645 -3.4383,9.51588 c -7.11608,19.69455 -10.36103,38.01881 -10.99486,62.08808 -0.63796,24.22554 0.87729,37.17591 6.3894,54.60814 l 2.96973,9.39186 -5.97766,6.97029 c -26.85969,31.31994 -43.06237,73.40089 -46.11284,119.76238 -0.96829,14.71612 0.98909,50.52867 3.79009,69.34486 12.69978,85.31232 55.96784,142.82647 129.30753,171.88226 22.00575,8.71824 53.54454,16.783 79.77741,20.39979 5.57623,0.76879 12.01742,1.70132 14.31373,2.07227 l 4.17513,0.67443 -5.84397,6.4999 c -11.0141,12.25032 -21.81543,36.44283 -24.15922,54.11104 -0.85542,6.44855 -1.07411,6.74683 -6.72453,9.17221 -19.6846,8.44941 -46.26467,12.59155 -64.88835,10.11198 -31.82506,-4.23722 -54.40891,-19.87125 -77.16283,-53.41725 -17.35929,-25.59269 -33.85792,-40.41723 -54.80219,-49.24149 -7.23242,-3.04717 -9.46314,-3.35257 -24.48826,-3.35257 -13.81238,0 -17.10618,0.37687 -20.02851,2.29167 -1.92363,1.2604 -3.81352,3.11515 -4.19975,4.12163 -2.29521,5.9812 5.27982,15.22219 20.922,25.52338 11.43526,7.5307 19.28203,15.09561 28.65702,27.62767 8.93293,11.94111 20.14733,31.55859 27.65187,48.37172 7.82749,17.53667 12.9292,25.07219 23.76866,35.10761 13.07411,12.10432 29.25514,20.10092 51.05517,25.23126 10.17561,2.39469 15.29181,2.73507 40.78373,2.71331 21.81647,-0.0186 32.30195,-0.57478 41.685,-2.211 6.89507,-1.20237 12.73313,-1.98948 12.97348,-1.74913 0.24035,0.24035 0.80522,21.78309 1.25526,47.87275 0.92136,53.41306 0.66024,55.79363 -6.9552,63.40907 -8.84732,8.84732 -18.87362,9.487 -38.54488,2.45906 z"
     id="path4552"
     inkscape:connector-curvature="0" />
  <path
     style="opacity:0;fill:#ffffff;fill-opacity:1;stroke-width:1.26732671"
     d="M 338.90475,993.13336 C 286.46773,974.39926 236.75026,946.42661 190.98614,909.90956 169.5741,892.82402 130.88867,854.26731 114.21521,833.39406 24.848033,721.51665 -13.571693,583.20862 5.4339888,441.7901 16.905724,356.43059 51.340301,273.51293 104.59787,203.00579 130.9622,168.10235 168.2056,130.85363 203.07457,104.51503 277.0168,48.662102 360.09891,15.367503 454.5901,3.7218769 c 25.98049,-3.20198242 89.34624,-3.20198242 115.32673,0 63.1269,7.7801151 118.29921,24.3968461 172.9901,52.1009611 C 888.57121,129.61025 990.945,269.28029 1016.541,429.14578 c 5.2056,32.51243 6.3039,47.10056 6.2954,83.61462 -0.014,59.14883 -7.5625,106.21285 -25.81488,160.95049 -43.94012,131.77338 -140.0601,240.55096 -265.52053,300.48573 -17.4135,8.31874 -43.55186,18.92218 -54.46629,22.09509 -14.9068,4.33349 -28.09603,-0.0558 -33.45938,-11.13494 -2.65367,-5.48175 -2.68819,-6.59638 -2.68819,-86.8038 0,-82.96522 -0.39789,-91.51351 -5.13862,-110.39952 -3.36109,-13.38983 -13.54815,-33.452 -21.48991,-42.32177 -3.58858,-4.00792 -6.05137,-7.2886 -5.47284,-7.29041 0.57853,-10e-4 10.08988,-1.41989 21.13633,-3.15131 125.08079,-19.60509 188.85233,-79.12875 206.36875,-192.62236 3.76671,-24.40552 4.14175,-78.86034 0.66353,-96.34186 -6.81522,-34.25328 -20.01665,-62.96675 -41.16205,-89.52863 l -7.71165,-9.68704 3.00834,-9.47336 c 9.97866,-31.42301 8.76283,-73.5232 -3.20695,-111.04498 -2.14305,-6.71785 -4.37022,-12.98085 -4.94929,-13.91778 -1.71124,-2.76887 -15.92595,-3.19877 -29.25356,-0.88475 -27.88868,4.84224 -64.35679,20.80057 -99.4577,43.5224 l -12.64582,8.18599 -17.13636,-3.92868 c -36.74811,-8.42485 -61.23455,-11.48911 -99.5126,-12.4531 -42.37969,-1.06727 -79.68865,2.6261 -120.00097,11.87942 l -19.88217,4.56377 -11.801,-7.6184 c -26.25579,-16.95002 -54.55402,-30.88801 -77.8858,-38.36185 -16.43212,-5.26368 -37.57602,-8.45616 -45.59892,-6.8849 l -6.00698,1.17645 -3.4383,9.51588 c -7.11608,19.69455 -10.36103,38.01881 -10.99486,62.08808 -0.63796,24.22554 0.87729,37.17591 6.3894,54.60814 l 2.96973,9.39186 -5.97766,6.97029 c -26.85969,31.31994 -43.06237,73.40089 -46.11284,119.76238 -0.96829,14.71612 0.98909,50.52867 3.79009,69.34486 12.69978,85.31232 55.96784,142.82647 129.30753,171.88226 22.00575,8.71824 53.54454,16.783 79.77741,20.39979 5.57623,0.76879 12.01742,1.70132 14.31373,2.07227 l 4.17513,0.67443 -5.84397,6.4999 c -11.0141,12.25032 -21.81543,36.44283 -24.15922,54.11104 -0.85542,6.44855 -1.07411,6.74683 -6.72453,9.17221 -19.6846,8.44941 -46.26467,12.59155 -64.88835,10.11198 -31.82506,-4.23722 -54.40891,-19.87125 -77.16283,-53.41725 -17.35929,-25.59269 -33.85792,-40.41723 -54.80219,-49.24149 -7.23242,-3.04717 -9.46314,-3.35257 -24.48826,-3.35257 -13.81238,0 -17.10618,0.37687 -20.02851,2.29167 -1.92363,1.2604 -3.81352,3.11515 -4.19975,4.12163 -2.29521,5.9812 5.27982,15.22219 20.922,25.52338 11.43526,7.5307 19.28203,15.09561 28.65702,27.62767 8.93293,11.94111 20.14733,31.55859 27.65187,48.37172 7.82749,17.53667 12.9292,25.07219 23.76866,35.10761 13.07411,12.10432 29.25514,20.10092 51.05517,25.23126 10.17561,2.39469 15.29181,2.73507 40.78373,2.71331 21.81647,-0.0186 32.30195,-0.57478 41.685,-2.211 6.89507,-1.20237 12.73313,-1.98948 12.97348,-1.74913 0.24035,0.24035 0.80522,21.78309 1.25526,47.87275 0.92136,53.41306 0.66024,55.79363 -6.9552,63.40907 -8.84732,8.84732 -18.87362,9.487 -38.54488,2.45906 z"
     id="path4554"
     inkscape:connector-curvature="0" />
  <path
     style="opacity:0;fill:#ffffff;fill-opacity:1;stroke-width:1.26732671"
     d="M 338.90475,993.13336 C 286.46773,974.39926 236.75026,946.42661 190.98614,909.90956 169.5741,892.82402 130.88867,854.26731 114.21521,833.39406 24.848033,721.51665 -13.571693,583.20862 5.4339888,441.7901 16.905724,356.43059 51.340301,273.51293 104.59787,203.00579 130.9622,168.10235 168.2056,130.85363 203.07457,104.51503 277.0168,48.662102 360.09891,15.367503 454.5901,3.7218769 c 25.98049,-3.20198242 89.34624,-3.20198242 115.32673,0 63.1269,7.7801151 118.29921,24.3968461 172.9901,52.1009611 C 888.57121,129.61025 990.945,269.28029 1016.541,429.14578 c 5.2056,32.51243 6.3039,47.10056 6.2954,83.61462 -0.014,59.14883 -7.5625,106.21285 -25.81488,160.95049 -43.94012,131.77338 -140.0601,240.55096 -265.52053,300.48573 -17.4135,8.31874 -43.55186,18.92218 -54.46629,22.09509 -14.9068,4.33349 -28.09603,-0.0558 -33.45938,-11.13494 -2.65367,-5.48175 -2.68819,-6.59638 -2.68819,-86.8038 0,-82.96522 -0.39789,-91.51351 -5.13862,-110.39952 -3.36109,-13.38983 -13.54815,-33.452 -21.48991,-42.32177 -3.58858,-4.00792 -6.05137,-7.2886 -5.47284,-7.29041 0.57853,-10e-4 10.08988,-1.41989 21.13633,-3.15131 125.08079,-19.60509 188.85233,-79.12875 206.36875,-192.62236 3.76671,-24.40552 4.14175,-78.86034 0.66353,-96.34186 -6.81522,-34.25328 -20.01665,-62.96675 -41.16205,-89.52863 l -7.71165,-9.68704 3.00834,-9.47336 c 9.97866,-31.42301 8.76283,-73.5232 -3.20695,-111.04498 -2.14305,-6.71785 -4.37022,-12.98085 -4.94929,-13.91778 -1.71124,-2.76887 -15.92595,-3.19877 -29.25356,-0.88475 -27.88868,4.84224 -64.35679,20.80057 -99.4577,43.5224 l -12.64582,8.18599 -17.13636,-3.92868 c -36.74811,-8.42485 -61.23455,-11.48911 -99.5126,-12.4531 -42.37969,-1.06727 -79.68865,2.6261 -120.00097,11.87942 l -19.88217,4.56377 -11.801,-7.6184 c -26.25579,-16.95002 -54.55402,-30.88801 -77.8858,-38.36185 -16.43212,-5.26368 -37.57602,-8.45616 -45.59892,-6.8849 l -6.00698,1.17645 -3.4383,9.51588 c -7.11608,19.69455 -10.36103,38.01881 -10.99486,62.08808 -0.63796,24.22554 0.87729,37.17591 6.3894,54.60814 l 2.96973,9.39186 -5.97766,6.97029 c -26.85969,31.31994 -43.06237,73.40089 -46.11284,119.76238 -0.96829,14.71612 0.98909,50.52867 3.79009,69.34486 12.69978,85.31232 55.96784,142.82647 129.30753,171.88226 22.00575,8.71824 53.54454,16.783 79.77741,20.39979 5.57623,0.76879 12.01742,1.70132 14.31373,2.07227 l 4.17513,0.67443 -5.84397,6.4999 c -11.0141,12.25032 -21.81543,36.44283 -24.15922,54.11104 -0.85542,6.44855 -1.07411,6.74683 -6.72453,9.17221 -19.6846,8.44941 -46.26467,12.59155 -64.88835,10.11198 -31.82506,-4.23722 -54.40891,-19.87125 -77.16283,-53.41725 -17.35929,-25.59269 -33.85792,-40.41723 -54.80219,-49.24149 -7.23242,-3.04717 -9.46314,-3.35257 -24.48826,-3.35257 -13.81238,0 -17.10618,0.37687 -20.02851,2.29167 -1.92363,1.2604 -3.81352,3.11515 -4.19975,4.12163 -2.29521,5.9812 5.27982,15.22219 20.922,25.52338 11.43526,7.5307 19.28203,15.09561 28.65702,27.62767 8.93293,11.94111 20.14733,31.55859 27.65187,48.37172 7.82749,17.53667 12.9292,25.07219 23.76866,35.10761 13.07411,12.10432 29.25514,20.10092 51.05517,25.23126 10.17561,2.39469 15.29181,2.73507 40.78373,2.71331 21.81647,-0.0186 32.30195,-0.57478 41.685,-2.211 6.89507,-1.20237 12.73313,-1.98948 12.97348,-1.74913 0.24035,0.24035 0.80522,21.78309 1.25526,47.87275 0.92136,53.41306 0.66024,55.79363 -6.9552,63.40907 -8.84732,8.84732 -18.87362,9.487 -38.54488,2.45906 z"
     id="path4556"
     inkscape:connector-curvature="0" />
</svg>
