<?xml version="1.0" encoding="UTF-8" standalone="no"?>
<svg
   xmlns:dc="http://purl.org/dc/elements/1.1/"
   xmlns:cc="http://creativecommons.org/ns#"
   xmlns:rdf="http://www.w3.org/1999/02/22-rdf-syntax-ns#"
   xmlns:svg="http://www.w3.org/2000/svg"
   xmlns="http://www.w3.org/2000/svg"
   xmlns:sodipodi="http://sodipodi.sourceforge.net/DTD/sodipodi-0.dtd"
   xmlns:inkscape="http://www.inkscape.org/namespaces/inkscape"
   width="2210.1636"
   height="2210.1636"
   viewBox="51.622 205.389 430.88035 430.79314"
   version="1.1"
   id="svg6083"
   sodipodi:docname="todoist.svg"
   inkscape:version="0.92.4 (5da689c313, 2019-01-14)">
  <metadata
     id="metadata6089">
    <rdf:RDF>
      <cc:Work
         rdf:about="">
        <dc:format>image/svg+xml</dc:format>
        <dc:type
           rdf:resource="http://purl.org/dc/dcmitype/StillImage" />
        <dc:title></dc:title>
      </cc:Work>
    </rdf:RDF>
  </metadata>
  <defs
     id="defs6087" />
  <sodipodi:namedview
     pagecolor="#ffffff"
     bordercolor="#666666"
     borderopacity="1"
     objecttolerance="10"
     gridtolerance="10"
     guidetolerance="10"
     inkscape:pageopacity="0"
     inkscape:pageshadow="2"
     inkscape:window-width="1366"
     inkscape:window-height="706"
     id="namedview6085"
     showgrid="false"
     inkscape:zoom="0.30163072"
     inkscape:cx="1140.2271"
     inkscape:cy="659.48914"
     inkscape:window-x="235"
     inkscape:window-y="1072"
     inkscape:window-maximized="1"
     inkscape:current-layer="svg6083"
     showguides="false"
     fit-margin-top="0"
     fit-margin-left="0"
     fit-margin-right="0"
     fit-margin-bottom="0" />
  <path
     d="m 111.615,420.39204 186.025,-186.025 186.025,186.025 -186.025,186.025 z"
     id="path6079"
     style="fill:none"
     inkscape:connector-curvature="0" />
  <g
     id="g5102"
     transform="translate(0,-0.5529602)"
     style="fill:#ffffff">
    <path
       style="fill:#ffffff;stroke-width:17.95334435"
       inkscape:connector-curvature="0"
       d="M 428.64235,205.8983 H 105.48199 a 53.860033,53.860033 0 0 0 -53.85999,53.86 v 66.42745 l 71.81347,41.29273 c 7.18126,3.5905 14.3625,3.5905 19.7485,0 l 143.62694,-82.58545 a 14.362675,14.362675 0 0 1 14.3625,0 l 17.95349,8.97674 c 3.5905,3.5905 1.79574,10.77199 0,12.56724 l -175.94293,96.94798 c -7.18125,5.38598 -12.56724,5.38598 -21.54398,0 L 51.622,363.88774 v 35.90674 l 71.81347,43.08798 c 7.18126,3.5905 14.3625,3.5905 19.7485,0 L 286.81091,360.297 a 14.362675,14.362675 0 0 1 14.3625,0 l 17.95349,8.97675 c 3.5905,1.79572 1.79574,8.97673 0,10.77199 L 144.97946,480.58445 c -7.18149,3.59074 -12.56748,5.38601 -21.54399,0 A 15386.015,15386.015 0 0 1 51.622,439.29172 v 35.90675 l 71.81347,41.29273 c 7.18126,3.5905 14.3625,3.5905 19.7485,0 l 143.62694,-82.58547 a 14.362675,14.362675 0 0 1 14.3625,0 l 17.95349,8.97673 c 3.5905,3.5905 1.79574,10.772 0,12.56725 l -174.14744,98.74348 c -7.18149,5.38598 -12.56748,5.38598 -21.54399,0 A 15386.015,15386.015 0 0 1 51.622,512.90046 v 71.81343 a 53.860033,53.860033 0 0 0 53.85999,52.06476 h 323.16036 a 53.860033,53.860033 0 0 0 53.85999,-53.86023 V 259.7583 a 53.860033,53.860033 0 0 0 -53.85999,-53.86"
       id="path4520" />
  </g>
</svg>
